<?xml version="1.0" encoding="utf-8"?>
<!DOCTYPE svg PUBLIC "-//W3C//DTD SVG 1.1//EN" "http://www.w3.org/Graphics/SVG/1.1/DTD/svg11.dtd">
<svg version="1.1" xmlns="http://www.w3.org/2000/svg" xmlns:xlink="http://www.w3.org/1999/xlink" viewBox="0 0 100 100" xml:space="preserve">
<g>
	<path d="M50.633,51.098c3.023-1.225,5.544-4.609,5.544-8.281c0-3.744-1.801-7.489-6.336-7.489c-4.681,0-6.481,3.672-6.481,7.129
		C43.36,46.633,46.384,49.513,50.633,51.098z"/>
	<path d="M48.833,58.73c-4.104,1.512-6.553,5.328-6.553,9.648c0,4.608,2.809,8.641,7.417,8.641c4.825,0,7.489-3.744,7.489-7.992
		C57.186,63.698,53.586,60.314,48.833,58.73z"/>
	<path d="M50,0C22.386,0,0,22.386,0,50s22.386,50,50,50s50-22.386,50-50S77.614,0,50,0z M26,84H16V39h-0.287l-9.361,4.681
		l-2.304-7.772L17.298,29H26V84z M49.409,84.292c-11.593,0-17.813-7.128-17.813-14.905C31.596,62.69,36,57.865,41,55.129v-0.215
		c-5-2.809-7.677-7.345-7.677-11.954c0-9.001,7.431-14.761,16.863-14.761c10.802,0,15.859,6.841,15.859,13.681
		c0,4.393-2.046,9.217-8.046,12.241v0.145c5,2.448,9.781,7.129,9.781,13.896C67.781,77.883,60.209,84.292,49.409,84.292z M79,30v10
		h-8V30h-9v-7h9V13h8v10h10v7H79z"/>
</g>
</svg>
